<svg width="30" height="33" viewBox="0 0 30 33" fill="none" xmlns="http://www.w3.org/2000/svg">
<rect x="0.256836" width="28.9504" height="32.7408" rx="3.92105" fill="white"/>
<rect x="0.648941" y="0.392105" width="28.1662" height="31.9566" rx="3.52895" stroke="#0FA958" stroke-opacity="0.44" stroke-width="0.784211"/>
<path d="M16.6274 7.8421V11.6325C16.6274 11.8838 16.7273 12.1248 16.905 12.3025C17.0827 12.4802 17.3237 12.58 17.575 12.58H21.3654" stroke="#0FA958" stroke-width="1.17632" stroke-linecap="round" stroke-linejoin="round"/>
<path d="M19.4702 24.8987H9.9943C9.49166 24.8987 9.00962 24.699 8.65421 24.3436C8.29879 23.9882 8.09912 23.5061 8.09912 23.0035V9.73728C8.09912 9.23465 8.29879 8.7526 8.65421 8.39719C9.00962 8.04177 9.49166 7.8421 9.9943 7.8421H16.6274L21.3653 12.58V23.0035C21.3653 23.5061 21.1657 23.9882 20.8103 24.3436C20.4548 24.699 19.9728 24.8987 19.4702 24.8987Z" stroke="#0FA958" stroke-width="1.17632" stroke-linecap="round" stroke-linejoin="round"/>
</svg>
